<svg width="35" height="26" viewBox="0 0 35 26" fill="none" xmlns="http://www.w3.org/2000/svg">
<path d="M1.99544 0H33.0045C33.5346 0.00524636 34.0412 0.219115 34.4147 0.595276C34.7882 0.971437 34.9985 1.4796 34.9999 2.00969V23.3209C35.0029 23.7276 34.8816 24.1254 34.6522 24.4612C34.6109 24.5688 34.5467 24.666 34.464 24.7463C34.4084 24.7994 34.345 24.8436 34.2759 24.8774C33.9162 25.1809 33.4609 25.3475 32.9903 25.3477H1.99544C1.46782 25.3425 0.963292 25.1306 0.590196 24.7575C0.2171 24.3844 0.00519852 23.8799 0 23.3523V2.00969C0.00147358 1.4796 0.21173 0.971437 0.585224 0.595276C0.958718 0.219115 1.46537 0.00524636 1.99544 0ZM1.90992 22.4743L12.3945 11.5792L1.90992 2.71949V22.4743ZM13.9738 12.939L2.77081 23.7884H32.1322L21.4281 12.939L18.2924 15.5644C18.1543 15.6792 17.9803 15.742 17.8007 15.742C17.6211 15.742 17.4472 15.6792 17.309 15.5644L13.9738 12.939ZM22.9817 11.5593L33.09 22.5627V2.62257L22.9817 11.5593ZM2.89623 1.54219L17.7708 13.5975L31.9897 1.54219H2.89623Z" fill="white"/>
</svg>
