<svg width="40" height="40" viewBox="0 0 40 40" fill="none" xmlns="http://www.w3.org/2000/svg">
<path d="M35.5556 0H4.44444C1.98889 0 0 1.98889 0 4.44444V35.5556C0 38.0111 1.98889 40 4.44444 40H35.5556C38.0111 40 40 38.0111 40 35.5556V4.44444C40 1.98889 38.0111 0 35.5556 0ZM13.3333 31.1111H7.72667V15.5556H13.3333V31.1111ZM10.4311 12.7044C8.71778 12.7044 7.57333 11.5622 7.57333 10.0378C7.57333 8.51333 8.71556 7.37111 10.62 7.37111C12.3333 7.37111 13.4778 8.51333 13.4778 10.0378C13.4778 11.5622 12.3356 12.7044 10.4311 12.7044ZM33.3333 31.1111H27.9067V22.6089C27.9067 20.2578 26.46 19.7156 25.9178 19.7156C25.3756 19.7156 23.5667 20.0778 23.5667 22.6089C23.5667 22.9711 23.5667 31.1111 23.5667 31.1111H17.96V15.5556H23.5667V17.7267C24.2889 16.46 25.7356 15.5556 28.4489 15.5556C31.1622 15.5556 33.3333 17.7267 33.3333 22.6089V31.1111Z" fill="white"/>
</svg>
