<svg width="35" height="47" viewBox="0 0 35 47" fill="none" xmlns="http://www.w3.org/2000/svg">
<path d="M17.6663 0C8.10104 0 0 8.14771 0 17.7975C0 27.9038 9.39021 38.239 15.7063 45.5029C15.731 45.5321 16.7519 46.6652 18.009 46.6652H18.1198C19.3783 46.6652 20.3919 45.5321 20.4167 45.5029C26.3433 38.6896 35 27.4531 35 17.7975C35 8.14625 28.681 0 17.6663 0ZM18.251 43.5458C18.2 43.5969 18.1256 43.6537 18.06 43.7019C17.9929 43.6552 17.92 43.5969 17.866 43.5458L17.1033 42.6679C11.1154 35.7992 2.91521 26.3915 2.91521 17.796C2.91521 9.72854 9.67021 2.91375 17.6648 2.91375C27.6238 2.91375 32.0819 10.3877 32.0819 17.796C32.0819 24.3206 27.4283 32.986 18.251 43.5458ZM17.551 8.83021C12.7196 8.83021 8.80104 12.7473 8.80104 17.5802C8.80104 22.4131 12.7196 26.3302 17.551 26.3302C22.3825 26.3302 26.301 22.4117 26.301 17.5802C26.301 12.7487 22.384 8.83021 17.551 8.83021ZM17.551 23.4135C14.334 23.4135 11.6506 20.7331 11.6506 17.516C11.6506 14.299 14.2669 11.6827 17.484 11.6827C20.7025 11.6827 23.3173 14.299 23.3173 17.516C23.3188 20.7331 20.7696 23.4135 17.551 23.4135Z" fill="white"/>
</svg>
