<svg width="36" height="35" viewBox="0 0 36 35" fill="none" xmlns="http://www.w3.org/2000/svg">
<path d="M9.68191 14.3963C10.8662 16.5267 12.2291 18.5769 13.997 20.4459C15.773 22.3238 17.9721 24.035 20.8315 25.4858L20.8344 25.4873L20.835 25.4858C21.0434 25.592 21.2417 25.5895 21.4281 25.5196C21.6983 25.4186 21.9797 25.1941 22.2534 24.9225C22.4621 24.7146 22.7237 24.3717 23.0065 23.9998C24.1075 22.5531 25.4687 20.7648 27.3904 21.6545C27.431 21.6731 27.4694 21.6949 27.5054 21.7192L33.91 25.3982C33.9329 25.4114 33.9549 25.4254 33.9758 25.4403C34.8249 26.0231 35.1715 26.9209 35.1753 27.9259C35.1793 28.9625 34.7948 30.1227 34.238 31.1037C33.5038 32.3968 32.4097 33.2513 31.1576 33.8304C29.9639 34.3823 28.639 34.676 27.3597 34.8632C25.359 35.1566 23.4729 34.9703 21.5521 34.3788C19.677 33.8015 17.7803 32.8373 15.7123 31.5563L15.5617 31.463C14.6096 30.8733 13.5848 30.2389 12.5878 29.4866C8.90499 26.707 5.15467 22.6956 2.72288 18.2932C0.675816 14.5873 -0.444327 10.5902 0.166269 6.77888C0.50091 4.68745 1.40292 2.78896 2.9579 1.53142C4.32108 0.428447 6.1606 -0.168981 8.52512 0.0419937C8.80365 0.0660397 9.03839 0.224915 9.17064 0.4482L9.17236 0.447341L13.2728 7.39492C13.8768 8.17298 13.9438 8.94503 13.6172 9.7125C13.3472 10.3474 12.7893 10.9294 12.0496 11.4782C11.8246 11.6642 11.5606 11.8575 11.2884 12.0567C10.3729 12.7268 9.3258 13.4932 9.68191 14.3963ZM12.7873 21.5904C10.8968 19.5917 9.45662 17.4275 8.21424 15.1904C8.19248 15.1552 8.17302 15.118 8.15642 15.0788C7.24782 12.9435 8.8778 11.751 10.3014 10.7098C10.5433 10.5329 10.7774 10.3615 10.9887 10.1863L10.9893 10.1871C11.0016 10.1768 11.0145 10.1668 11.0279 10.1571C11.5555 9.76946 11.9356 9.39933 12.0808 9.05868C12.1635 8.8643 12.1329 8.65047 11.9474 8.41029C11.9156 8.37336 11.8864 8.33272 11.8606 8.2892L7.95661 1.67512C6.27653 1.60613 4.97404 2.05327 4.01077 2.83276C2.7973 3.81436 2.08623 5.34013 1.81399 7.04053C1.26866 10.4453 2.30522 14.0809 4.18768 17.4891C6.5001 21.6751 10.0775 25.4978 13.5954 28.1524C14.5627 28.8823 15.5351 29.4843 16.4385 30.0437L16.5891 30.137C18.5409 31.3459 20.3154 32.2513 22.043 32.7832C23.7251 33.3011 25.3734 33.4645 27.1181 33.2086C28.2658 33.0406 29.4406 32.7835 30.4582 32.3129C31.4175 31.8692 32.2468 31.2294 32.7867 30.2793C33.2149 29.5244 33.5109 28.661 33.5084 27.9256C33.5066 27.459 33.3732 27.0585 33.0489 26.8252L26.6796 23.1671C25.9751 22.8577 25.0682 24.0491 24.3342 25.0135C24.0182 25.4291 23.7259 25.8127 23.4308 26.1062C23.008 26.5258 22.5382 26.8856 22.0104 27.0826C21.3989 27.3113 20.7522 27.3213 20.0767 26.9767L20.0772 26.9755C17.0388 25.434 14.6918 23.6042 12.7873 21.5904Z" fill="white"/>
</svg>
